solid rudder
  facet normal -2.815656e-001 -9.595419e-001  1.083627e-017
    outer loop
      vertex  2.717020e+000 -1.694423e-018 -1.212270e-001
      vertex  2.717020e+000 -8.208681e-019 -4.387450e-002
      vertex  2.715143e+000  5.509118e-004 -1.212270e-001
    endloop
  endfacet
  facet normal -2.815656e-001 -9.595419e-001  0.000000e+000
    outer loop
      vertex  2.715143e+000  5.509118e-004 -1.212270e-001
      vertex  2.717020e+000 -8.208681e-019 -4.387450e-002
      vertex  2.715143e+000  5.509118e-004 -4.387450e-002
    endloop
  endfacet
  facet normal -2.548015e-001 -9.669933e-001  -0.000000e+000
    outer loop
      vertex  2.715143e+000  5.509118e-004 -1.212270e-001
      vertex  2.715143e+000  5.509118e-004 -4.387450e-002
      vertex  2.713243e+000  1.051405e-003 -1.212270e-001
    endloop
  endfacet
  facet normal -2.548015e-001 -9.669933e-001  0.000000e+000
    outer loop
      vertex  2.713243e+000  1.051405e-003 -1.212270e-001
      vertex  2.715143e+000  5.509118e-004 -4.387450e-002
      vertex  2.713243e+000  1.051405e-003 -4.387450e-002
    endloop
  endfacet
  facet normal -2.273876e-001 -9.738044e-001  -0.000000e+000
    outer loop
      vertex  2.713243e+000  1.051405e-003 -1.212270e-001
      vertex  2.713243e+000  1.051405e-003 -4.387450e-002
      vertex  2.711322e+000  1.500000e-003 -1.212270e-001
    endloop
  endfacet
  facet normal -2.273876e-001 -9.738044e-001  0.000000e+000
    outer loop
      vertex  2.711322e+000  1.500000e-003 -1.212270e-001
      vertex  2.713243e+000  1.051405e-003 -4.387450e-002
      vertex  2.711322e+000  1.500000e-003 -4.387450e-002
    endloop
  endfacet
  facet normal -2.056779e-001 -9.786197e-001  -0.000000e+000
    outer loop
      vertex  2.711322e+000  1.500000e-003 -1.212270e-001
      vertex  2.711322e+000  1.500000e-003 -4.387450e-002
      vertex  2.710316e+000  1.711352e-003 -1.212270e-001
    endloop
  endfacet
  facet normal -2.056779e-001 -9.786197e-001  0.000000e+000
    outer loop
      vertex  2.710316e+000  1.711352e-003 -1.212270e-001
      vertex  2.711322e+000  1.500000e-003 -4.387450e-002
      vertex  2.710316e+000  1.711352e-003 -4.387450e-002
    endloop
  endfacet
  facet normal -1.899991e-001 -9.817843e-001  -0.000000e+000
    outer loop
      vertex  2.710316e+000  1.711352e-003 -1.212270e-001
      vertex  2.710316e+000  1.711352e-003 -4.387450e-002
      vertex  2.709306e+000  1.906860e-003 -1.212270e-001
    endloop
  endfacet
  facet normal -1.899991e-001 -9.817843e-001  0.000000e+000
    outer loop
      vertex  2.709306e+000  1.906860e-003 -1.212270e-001
      vertex  2.710316e+000  1.711352e-003 -4.387450e-002
      vertex  2.709306e+000  1.906860e-003 -4.387450e-002
    endloop
  endfacet
  facet normal -1.733334e-001 -9.848632e-001  -0.000000e+000
    outer loop
      vertex  2.709306e+000  1.906860e-003 -1.212270e-001
      vertex  2.709306e+000  1.906860e-003 -4.387450e-002
      vertex  2.708292e+000  2.085436e-003 -1.212270e-001
    endloop
  endfacet
  facet normal -1.733334e-001 -9.848632e-001  0.000000e+000
    outer loop
      vertex  2.708292e+000  2.085436e-003 -1.212270e-001
      vertex  2.709306e+000  1.906860e-003 -4.387450e-002
      vertex  2.708292e+000  2.085436e-003 -4.387450e-002
    endloop
  endfacet
  facet normal -1.555623e-001 -9.878261e-001  -0.000000e+000
    outer loop
      vertex  2.708292e+000  2.085436e-003 -1.212270e-001
      vertex  2.708292e+000  2.085436e-003 -4.387450e-002
      vertex  2.707273e+000  2.245799e-003 -1.212270e-001
    endloop
  endfacet
  facet normal -1.555623e-001 -9.878261e-001  0.000000e+000
    outer loop
      vertex  2.707273e+000  2.245799e-003 -1.212270e-001
      vertex  2.708292e+000  2.085436e-003 -4.387450e-002
      vertex  2.707273e+000  2.245799e-003 -4.387450e-002
    endloop
  endfacet
  facet normal -1.365320e-001 -9.906357e-001  -0.000000e+000
    outer loop
      vertex  2.707273e+000  2.245799e-003 -1.212270e-001
      vertex  2.707273e+000  2.245799e-003 -4.387450e-002
      vertex  2.706252e+000  2.386515e-003 -1.212270e-001
    endloop
  endfacet
  facet normal -1.365320e-001 -9.906357e-001  0.000000e+000
    outer loop
      vertex  2.706252e+000  2.386515e-003 -1.212270e-001
      vertex  2.707273e+000  2.245799e-003 -4.387450e-002
      vertex  2.706252e+000  2.386515e-003 -4.387450e-002
    endloop
  endfacet
  facet normal -1.160444e-001 -9.932441e-001  -0.000000e+000
    outer loop
      vertex  2.706252e+000  2.386515e-003 -1.212270e-001
      vertex  2.706252e+000  2.386515e-003 -4.387450e-002
      vertex  2.705229e+000  2.506030e-003 -1.212270e-001
    endloop
  endfacet
  facet normal -1.160444e-001 -9.932441e-001  0.000000e+000
    outer loop
      vertex  2.705229e+000  2.506030e-003 -1.212270e-001
      vertex  2.706252e+000  2.386515e-003 -4.387450e-002
      vertex  2.705229e+000  2.506030e-003 -4.387450e-002
    endloop
  endfacet
  facet normal -9.627146e-002 -9.953551e-001  -0.000000e+000
    outer loop
      vertex  2.705229e+000  2.506030e-003 -1.212270e-001
      vertex  2.705229e+000  2.506030e-003 -4.387450e-002
      vertex  2.704410e+000  2.585277e-003 -1.212270e-001
    endloop
  endfacet
  facet normal -9.627146e-002 -9.953551e-001  0.000000e+000
    outer loop
      vertex  2.704410e+000  2.585277e-003 -1.212270e-001
      vertex  2.705229e+000  2.506030e-003 -4.387450e-002
      vertex  2.704410e+000  2.585277e-003 -4.387450e-002
    endloop
  endfacet
  facet normal -7.756682e-002 -9.969872e-001  -0.000000e+000
    outer loop
      vertex  2.704410e+000  2.585277e-003 -1.212270e-001
      vertex  2.704410e+000  2.585277e-003 -4.387450e-002
      vertex  2.703590e+000  2.649041e-003 -1.212270e-001
    endloop
  endfacet
  facet normal -7.756682e-002 -9.969872e-001  0.000000e+000
    outer loop
      vertex  2.703590e+000  2.649041e-003 -1.212270e-001
      vertex  2.704410e+000  2.585277e-003 -4.387450e-002
      vertex  2.703590e+000  2.649041e-003 -4.387450e-002
    endloop
  endfacet
  facet normal -5.776355e-002 -9.983303e-001  -0.000000e+000
    outer loop
      vertex  2.703590e+000  2.649041e-003 -1.212270e-001
      vertex  2.703590e+000  2.649041e-003 -4.387450e-002
      vertex  2.702771e+000  2.696448e-003 -1.212270e-001
    endloop
  endfacet
  facet normal -5.776355e-002 -9.983303e-001  0.000000e+000
    outer loop
      vertex  2.702771e+000  2.696448e-003 -1.212270e-001
      vertex  2.703590e+000  2.649041e-003 -4.387450e-002
      vertex  2.702771e+000  2.696448e-003 -4.387450e-002
    endloop
  endfacet
  facet normal -3.682728e-002 -9.993216e-001  -0.000000e+000
    outer loop
      vertex  2.702771e+000  2.696448e-003 -1.212270e-001
      vertex  2.702771e+000  2.696448e-003 -4.387450e-002
      vertex  2.701952e+000  2.726625e-003 -1.212270e-001
    endloop
  endfacet
  facet normal -3.682728e-002 -9.993216e-001  0.000000e+000
    outer loop
      vertex  2.701952e+000  2.726625e-003 -1.212270e-001
      vertex  2.702771e+000  2.696448e-003 -4.387450e-002
      vertex  2.701952e+000  2.726625e-003 -4.387450e-002
    endloop
  endfacet
  facet normal -1.477979e-002 -9.998908e-001  -0.000000e+000
    outer loop
      vertex  2.701952e+000  2.726625e-003 -1.212270e-001
      vertex  2.701952e+000  2.726625e-003 -4.387450e-002
      vertex  2.701135e+000  2.738710e-003 -1.212270e-001
    endloop
  endfacet
  facet normal -1.477979e-002 -9.998908e-001  0.000000e+000
    outer loop
      vertex  2.701135e+000  2.738710e-003 -1.212270e-001
      vertex  2.701952e+000  2.726625e-003 -4.387450e-002
      vertex  2.701135e+000  2.738710e-003 -4.387450e-002
    endloop
  endfacet
  facet normal  8.381259e-003 -9.999650e-001  0.000000e+000
    outer loop
      vertex  2.701135e+000  2.738710e-003 -1.212270e-001
      vertex  2.701135e+000  2.738710e-003 -4.387450e-002
      vertex  2.700319e+000  2.731870e-003 -1.212270e-001
    endloop
  endfacet
  facet normal  8.381259e-003 -9.999650e-001  0.000000e+000
    outer loop
      vertex  2.700319e+000  2.731870e-003 -1.212270e-001
      vertex  2.701135e+000  2.738710e-003 -4.387450e-002
      vertex  2.700319e+000  2.731870e-003 -4.387450e-002
    endloop
  endfacet
  facet normal  3.268268e-002 -9.994658e-001  0.000000e+000
    outer loop
      vertex  2.700319e+000  2.731870e-003 -1.212270e-001
      vertex  2.700319e+000  2.731870e-003 -4.387450e-002
      vertex  2.699499e+000  2.705085e-003 -1.212270e-001
    endloop
  endfacet
  facet normal  3.268268e-002 -9.994658e-001  0.000000e+000
    outer loop
      vertex  2.699499e+000  2.705085e-003 -1.212270e-001
      vertex  2.700319e+000  2.731870e-003 -4.387450e-002
      vertex  2.699499e+000  2.705085e-003 -4.387450e-002
    endloop
  endfacet
  facet normal  5.807981e-002 -9.983119e-001  0.000000e+000
    outer loop
      vertex  2.699499e+000  2.705085e-003 -1.212270e-001
      vertex  2.699499e+000  2.705085e-003 -4.387450e-002
      vertex  2.698683e+000  2.657574e-003 -1.212270e-001
    endloop
  endfacet
  facet normal  5.807981e-002 -9.983119e-001  0.000000e+000
    outer loop
      vertex  2.698683e+000  2.657574e-003 -1.212270e-001
      vertex  2.699499e+000  2.705085e-003 -4.387450e-002
      vertex  2.698683e+000  2.657574e-003 -4.387450e-002
    endloop
  endfacet
  facet normal  8.427026e-002 -9.964430e-001  0.000000e+000
    outer loop
      vertex  2.698683e+000  2.657574e-003 -1.212270e-001
      vertex  2.698683e+000  2.657574e-003 -4.387450e-002
      vertex  2.697879e+000  2.589562e-003 -1.212270e-001
    endloop
  endfacet
  facet normal  8.427026e-002 -9.964430e-001  0.000000e+000
    outer loop
      vertex  2.697879e+000  2.589562e-003 -1.212270e-001
      vertex  2.698683e+000  2.657574e-003 -4.387450e-002
      vertex  2.697879e+000  2.589562e-003 -4.387450e-002
    endloop
  endfacet
  facet normal  1.110499e-001 -9.938148e-001  0.000000e+000
    outer loop
      vertex  2.697879e+000  2.589562e-003 -1.212270e-001
      vertex  2.697879e+000  2.589562e-003 -4.387450e-002
      vertex  2.697077e+000  2.500000e-003 -1.212270e-001
    endloop
  endfacet
  facet normal  1.110499e-001 -9.938148e-001  0.000000e+000
    outer loop
      vertex  2.697077e+000  2.500000e-003 -1.212270e-001
      vertex  2.697879e+000  2.589562e-003 -4.387450e-002
      vertex  2.697077e+000  2.500000e-003 -4.387450e-002
    endloop
  endfacet
  facet normal  1.373607e-001 -9.905211e-001  0.000000e+000
    outer loop
      vertex  2.697077e+000  2.500000e-003 -1.212270e-001
      vertex  2.697077e+000  2.500000e-003 -4.387450e-002
      vertex  2.696347e+000  2.398736e-003 -1.212270e-001
    endloop
  endfacet
  facet normal  1.373607e-001 -9.905211e-001  0.000000e+000
    outer loop
      vertex  2.696347e+000  2.398736e-003 -1.212270e-001
      vertex  2.697077e+000  2.500000e-003 -4.387450e-002
      vertex  2.696347e+000  2.398736e-003 -4.387450e-002
    endloop
  endfacet
  facet normal  1.629200e-001 -9.866393e-001  0.000000e+000
    outer loop
      vertex  2.696347e+000  2.398736e-003 -1.212270e-001
      vertex  2.696347e+000  2.398736e-003 -4.387450e-002
      vertex  2.695620e+000  2.278641e-003 -1.212270e-001
    endloop
  endfacet
  facet normal  1.629200e-001 -9.866393e-001  0.000000e+000
    outer loop
      vertex  2.695620e+000  2.278641e-003 -1.212270e-001
      vertex  2.696347e+000  2.398736e-003 -4.387450e-002
      vertex  2.695620e+000  2.278641e-003 -4.387450e-002
    endloop
  endfacet
  facet normal  1.887988e-001 -9.820158e-001  0.000000e+000
    outer loop
      vertex  2.695620e+000  2.278641e-003 -1.212270e-001
      vertex  2.695620e+000  2.278641e-003 -4.387450e-002
      vertex  2.694896e+000  2.139424e-003 -1.212270e-001
    endloop
  endfacet
  facet normal  1.887988e-001 -9.820158e-001  0.000000e+000
    outer loop
      vertex  2.694896e+000  2.139424e-003 -1.212270e-001
      vertex  2.695620e+000  2.278641e-003 -4.387450e-002
      vertex  2.694896e+000  2.139424e-003 -4.387450e-002
    endloop
  endfacet
  facet normal  2.148195e-001 -9.766538e-001  0.000000e+000
    outer loop
      vertex  2.694896e+000  2.139424e-003 -1.212270e-001
      vertex  2.694896e+000  2.139424e-003 -4.387450e-002
      vertex  2.694175e+000  1.980848e-003 -1.212270e-001
    endloop
  endfacet
  facet normal  2.148195e-001 -9.766538e-001  0.000000e+000
    outer loop
      vertex  2.694175e+000  1.980848e-003 -1.212270e-001
      vertex  2.694896e+000  2.139424e-003 -4.387450e-002
      vertex  2.694175e+000  1.980848e-003 -4.387450e-002
    endloop
  endfacet
  facet normal  2.408567e-001 -9.705606e-001  0.000000e+000
    outer loop
      vertex  2.694175e+000  1.980848e-003 -1.212270e-001
      vertex  2.694175e+000  1.980848e-003 -4.387450e-002
      vertex  2.693457e+000  1.802724e-003 -1.212270e-001
    endloop
  endfacet
  facet normal  2.408567e-001 -9.705606e-001  0.000000e+000
    outer loop
      vertex  2.693457e+000  1.802724e-003 -1.212270e-001
      vertex  2.694175e+000  1.980848e-003 -4.387450e-002
      vertex  2.693457e+000  1.802724e-003 -4.387450e-002
    endloop
  endfacet
  facet normal  2.669639e-001 -9.637065e-001  0.000000e+000
    outer loop
      vertex  2.693457e+000  1.802724e-003 -1.212270e-001
      vertex  2.693457e+000  1.802724e-003 -4.387450e-002
      vertex  2.692743e+000  1.604902e-003 -1.212270e-001
    endloop
  endfacet
  facet normal  2.669639e-001 -9.637065e-001  0.000000e+000
    outer loop
      vertex  2.692743e+000  1.604902e-003 -1.212270e-001
      vertex  2.693457e+000  1.802724e-003 -4.387450e-002
      vertex  2.692743e+000  1.604902e-003 -4.387450e-002
    endloop
  endfacet
  facet normal  2.927096e-001 -9.562014e-001  0.000000e+000
    outer loop
      vertex  2.692743e+000  1.604902e-003 -1.212270e-001
      vertex  2.692743e+000  1.604902e-003 -4.387450e-002
      vertex  2.692032e+000  1.387272e-003 -1.212270e-001
    endloop
  endfacet
  facet normal  2.927096e-001 -9.562014e-001  0.000000e+000
    outer loop
      vertex  2.692032e+000  1.387272e-003 -1.212270e-001
      vertex  2.692743e+000  1.604902e-003 -4.387450e-002
      vertex  2.692032e+000  1.387272e-003 -4.387450e-002
    endloop
  endfacet
  facet normal  3.183504e-001 -9.479731e-001  0.000000e+000
    outer loop
      vertex  2.692032e+000  1.387272e-003 -1.212270e-001
      vertex  2.692032e+000  1.387272e-003 -4.387450e-002
      vertex  2.691324e+000  1.149753e-003 -1.212270e-001
    endloop
  endfacet
  facet normal  3.183504e-001 -9.479731e-001  0.000000e+000
    outer loop
      vertex  2.691324e+000  1.149753e-003 -1.212270e-001
      vertex  2.692032e+000  1.387272e-003 -4.387450e-002
      vertex  2.691324e+000  1.149753e-003 -4.387450e-002
    endloop
  endfacet
  facet normal  3.435254e-001 -9.391433e-001  0.000000e+000
    outer loop
      vertex  2.691324e+000  1.149753e-003 -1.212270e-001
      vertex  2.691324e+000  1.149753e-003 -4.387450e-002
      vertex  2.690620e+000  8.922919e-004 -1.212270e-001
    endloop
  endfacet
  facet normal  3.435254e-001 -9.391433e-001  0.000000e+000
    outer loop
      vertex  2.690620e+000  8.922919e-004 -1.212270e-001
      vertex  2.691324e+000  1.149753e-003 -4.387450e-002
      vertex  2.690620e+000  8.922919e-004 -4.387450e-002
    endloop
  endfacet
  facet normal  3.682538e-001 -9.297253e-001  0.000000e+000
    outer loop
      vertex  2.690620e+000  8.922919e-004 -1.212270e-001
      vertex  2.690620e+000  8.922919e-004 -4.387450e-002
      vertex  2.689920e+000  6.148557e-004 -1.212270e-001
    endloop
  endfacet
  facet normal  3.682538e-001 -9.297253e-001  0.000000e+000
    outer loop
      vertex  2.689920e+000  6.148557e-004 -1.212270e-001
      vertex  2.690620e+000  8.922919e-004 -4.387450e-002
      vertex  2.689920e+000  6.148557e-004 -4.387450e-002
    endloop
  endfacet
  facet normal  3.925914e-001 -9.197130e-001  0.000000e+000
    outer loop
      vertex  2.689920e+000  6.148557e-004 -1.212270e-001
      vertex  2.689920e+000  6.148557e-004 -4.387450e-002
      vertex  2.689223e+000  3.174272e-004 -1.212270e-001
    endloop
  endfacet
  facet normal  3.925914e-001 -9.197130e-001  0.000000e+000
    outer loop
      vertex  2.689223e+000  3.174272e-004 -1.212270e-001
      vertex  2.689920e+000  6.148557e-004 -4.387450e-002
      vertex  2.689223e+000  3.174272e-004 -4.387450e-002
    endloop
  endfacet
  facet normal  4.163830e-001 -9.091893e-001  0.000000e+000
    outer loop
      vertex  2.689223e+000  3.174272e-004 -1.212270e-001
      vertex  2.689223e+000  3.174272e-004 -4.387450e-002
      vertex  2.688530e+000  5.411665e-019 -1.212270e-001
    endloop
  endfacet
  facet normal  4.163830e-001 -9.091893e-001  1.247783e-018
    outer loop
      vertex  2.688530e+000  5.411665e-019 -1.212270e-001
      vertex  2.689223e+000  3.174272e-004 -4.387450e-002
      vertex  2.688530e+000  6.473261e-019 -4.387450e-002
    endloop
  endfacet
  facet normal  4.163830e-001  9.091893e-001 -1.247783e-018
    outer loop
      vertex  2.688530e+000  5.411665e-019 -1.212270e-001
      vertex  2.688530e+000  6.473261e-019 -4.387450e-002
      vertex  2.689223e+000 -3.174272e-004 -1.212270e-001
    endloop
  endfacet
  facet normal  4.163830e-001  9.091893e-001  -0.000000e+000
    outer loop
      vertex  2.689223e+000 -3.174272e-004 -1.212270e-001
      vertex  2.688530e+000  6.473261e-019 -4.387450e-002
      vertex  2.689223e+000 -3.174272e-004 -4.387450e-002
    endloop
  endfacet
  facet normal  3.925914e-001  9.197130e-001  0.000000e+000
    outer loop
      vertex  2.689223e+000 -3.174272e-004 -1.212270e-001
      vertex  2.689223e+000 -3.174272e-004 -4.387450e-002
      vertex  2.689920e+000 -6.148557e-004 -1.212270e-001
    endloop
  endfacet
  facet normal  3.925914e-001  9.197130e-001  -0.000000e+000
    outer loop
      vertex  2.689920e+000 -6.148557e-004 -1.212270e-001
      vertex  2.689223e+000 -3.174272e-004 -4.387450e-002
      vertex  2.689920e+000 -6.148557e-004 -4.387450e-002
    endloop
  endfacet
  facet normal  3.682538e-001  9.297253e-001  0.000000e+000
    outer loop
      vertex  2.689920e+000 -6.148557e-004 -1.212270e-001
      vertex  2.689920e+000 -6.148557e-004 -4.387450e-002
      vertex  2.690620e+000 -8.922919e-004 -1.212270e-001
    endloop
  endfacet
  facet normal  3.682538e-001  9.297253e-001  -0.000000e+000
    outer loop
      vertex  2.690620e+000 -8.922919e-004 -1.212270e-001
      vertex  2.689920e+000 -6.148557e-004 -4.387450e-002
      vertex  2.690620e+000 -8.922919e-004 -4.387450e-002
    endloop
  endfacet
  facet normal  3.435254e-001  9.391433e-001  0.000000e+000
    outer loop
      vertex  2.690620e+000 -8.922919e-004 -1.212270e-001
      vertex  2.690620e+000 -8.922919e-004 -4.387450e-002
      vertex  2.691324e+000 -1.149753e-003 -1.212270e-001
    endloop
  endfacet
  facet normal  3.435254e-001  9.391433e-001  -0.000000e+000
    outer loop
      vertex  2.691324e+000 -1.149753e-003 -1.212270e-001
      vertex  2.690620e+000 -8.922919e-004 -4.387450e-002
      vertex  2.691324e+000 -1.149753e-003 -4.387450e-002
    endloop
  endfacet
  facet normal  3.183504e-001  9.479731e-001  0.000000e+000
    outer loop
      vertex  2.691324e+000 -1.149753e-003 -1.212270e-001
      vertex  2.691324e+000 -1.149753e-003 -4.387450e-002
      vertex  2.692032e+000 -1.387272e-003 -1.212270e-001
    endloop
  endfacet
  facet normal  3.183504e-001  9.479731e-001  -0.000000e+000
    outer loop
      vertex  2.692032e+000 -1.387272e-003 -1.212270e-001
      vertex  2.691324e+000 -1.149753e-003 -4.387450e-002
      vertex  2.692032e+000 -1.387272e-003 -4.387450e-002
    endloop
  endfacet
  facet normal  2.927096e-001  9.562014e-001  0.000000e+000
    outer loop
      vertex  2.692032e+000 -1.387272e-003 -1.212270e-001
      vertex  2.692032e+000 -1.387272e-003 -4.387450e-002
      vertex  2.692743e+000 -1.604902e-003 -1.212270e-001
    endloop
  endfacet
  facet normal  2.927096e-001  9.562014e-001  -0.000000e+000
    outer loop
      vertex  2.692743e+000 -1.604902e-003 -1.212270e-001
      vertex  2.692032e+000 -1.387272e-003 -4.387450e-002
      vertex  2.692743e+000 -1.604902e-003 -4.387450e-002
    endloop
  endfacet
  facet normal  2.669639e-001  9.637065e-001  0.000000e+000
    outer loop
      vertex  2.692743e+000 -1.604902e-003 -1.212270e-001
      vertex  2.692743e+000 -1.604902e-003 -4.387450e-002
      vertex  2.693457e+000 -1.802724e-003 -1.212270e-001
    endloop
  endfacet
  facet normal  2.669639e-001  9.637065e-001  -0.000000e+000
    outer loop
      vertex  2.693457e+000 -1.802724e-003 -1.212270e-001
      vertex  2.692743e+000 -1.604902e-003 -4.387450e-002
      vertex  2.693457e+000 -1.802724e-003 -4.387450e-002
    endloop
  endfacet
  facet normal  2.408567e-001  9.705606e-001  0.000000e+000
    outer loop
      vertex  2.693457e+000 -1.802724e-003 -1.212270e-001
      vertex  2.693457e+000 -1.802724e-003 -4.387450e-002
      vertex  2.694175e+000 -1.980848e-003 -1.212270e-001
    endloop
  endfacet
  facet normal  2.408567e-001  9.705606e-001  -0.000000e+000
    outer loop
      vertex  2.694175e+000 -1.980848e-003 -1.212270e-001
      vertex  2.693457e+000 -1.802724e-003 -4.387450e-002
      vertex  2.694175e+000 -1.980848e-003 -4.387450e-002
    endloop
  endfacet
  facet normal  2.148195e-001  9.766538e-001  0.000000e+000
    outer loop
      vertex  2.694175e+000 -1.980848e-003 -1.212270e-001
      vertex  2.694175e+000 -1.980848e-003 -4.387450e-002
      vertex  2.694896e+000 -2.139424e-003 -1.212270e-001
    endloop
  endfacet
  facet normal  2.148195e-001  9.766538e-001  -0.000000e+000
    outer loop
      vertex  2.694896e+000 -2.139424e-003 -1.212270e-001
      vertex  2.694175e+000 -1.980848e-003 -4.387450e-002
      vertex  2.694896e+000 -2.139424e-003 -4.387450e-002
    endloop
  endfacet
  facet normal  1.887988e-001  9.820158e-001  0.000000e+000
    outer loop
      vertex  2.694896e+000 -2.139424e-003 -1.212270e-001
      vertex  2.694896e+000 -2.139424e-003 -4.387450e-002
      vertex  2.695620e+000 -2.278641e-003 -1.212270e-001
    endloop
  endfacet
  facet normal  1.887988e-001  9.820158e-001  -0.000000e+000
    outer loop
      vertex  2.695620e+000 -2.278641e-003 -1.212270e-001
      vertex  2.694896e+000 -2.139424e-003 -4.387450e-002
      vertex  2.695620e+000 -2.278641e-003 -4.387450e-002
    endloop
  endfacet
  facet normal  1.629200e-001  9.866393e-001  0.000000e+000
    outer loop
      vertex  2.695620e+000 -2.278641e-003 -1.212270e-001
      vertex  2.695620e+000 -2.278641e-003 -4.387450e-002
      vertex  2.696347e+000 -2.398736e-003 -1.212270e-001
    endloop
  endfacet
  facet normal  1.629200e-001  9.866393e-001  -0.000000e+000
    outer loop
      vertex  2.696347e+000 -2.398736e-003 -1.212270e-001
      vertex  2.695620e+000 -2.278641e-003 -4.387450e-002
      vertex  2.696347e+000 -2.398736e-003 -4.387450e-002
    endloop
  endfacet
  facet normal  1.373607e-001  9.905211e-001  0.000000e+000
    outer loop
      vertex  2.696347e+000 -2.398736e-003 -1.212270e-001
      vertex  2.696347e+000 -2.398736e-003 -4.387450e-002
      vertex  2.697077e+000 -2.500000e-003 -1.212270e-001
    endloop
  endfacet
  facet normal  1.373607e-001  9.905211e-001  -0.000000e+000
    outer loop
      vertex  2.697077e+000 -2.500000e-003 -1.212270e-001
      vertex  2.696347e+000 -2.398736e-003 -4.387450e-002
      vertex  2.697077e+000 -2.500000e-003 -4.387450e-002
    endloop
  endfacet
  facet normal  1.110499e-001  9.938148e-001  0.000000e+000
    outer loop
      vertex  2.697077e+000 -2.500000e-003 -1.212270e-001
      vertex  2.697077e+000 -2.500000e-003 -4.387450e-002
      vertex  2.697879e+000 -2.589562e-003 -1.212270e-001
    endloop
  endfacet
  facet normal  1.110499e-001  9.938148e-001  -0.000000e+000
    outer loop
      vertex  2.697879e+000 -2.589562e-003 -1.212270e-001
      vertex  2.697077e+000 -2.500000e-003 -4.387450e-002
      vertex  2.697879e+000 -2.589562e-003 -4.387450e-002
    endloop
  endfacet
  facet normal  8.427026e-002  9.964430e-001  0.000000e+000
    outer loop
      vertex  2.697879e+000 -2.589562e-003 -1.212270e-001
      vertex  2.697879e+000 -2.589562e-003 -4.387450e-002
      vertex  2.698683e+000 -2.657574e-003 -1.212270e-001
    endloop
  endfacet
  facet normal  8.427026e-002  9.964430e-001  -0.000000e+000
    outer loop
      vertex  2.698683e+000 -2.657574e-003 -1.212270e-001
      vertex  2.697879e+000 -2.589562e-003 -4.387450e-002
      vertex  2.698683e+000 -2.657574e-003 -4.387450e-002
    endloop
  endfacet
  facet normal  5.807981e-002  9.983119e-001  0.000000e+000
    outer loop
      vertex  2.698683e+000 -2.657574e-003 -1.212270e-001
      vertex  2.698683e+000 -2.657574e-003 -4.387450e-002
      vertex  2.699499e+000 -2.705085e-003 -1.212270e-001
    endloop
  endfacet
  facet normal  5.807981e-002  9.983119e-001  -0.000000e+000
    outer loop
      vertex  2.699499e+000 -2.705085e-003 -1.212270e-001
      vertex  2.698683e+000 -2.657574e-003 -4.387450e-002
      vertex  2.699499e+000 -2.705085e-003 -4.387450e-002
    endloop
  endfacet
  facet normal  3.268268e-002  9.994658e-001  0.000000e+000
    outer loop
      vertex  2.699499e+000 -2.705085e-003 -1.212270e-001
      vertex  2.699499e+000 -2.705085e-003 -4.387450e-002
      vertex  2.700319e+000 -2.731870e-003 -1.212270e-001
    endloop
  endfacet
  facet normal  3.268268e-002  9.994658e-001  -0.000000e+000
    outer loop
      vertex  2.700319e+000 -2.731870e-003 -1.212270e-001
      vertex  2.699499e+000 -2.705085e-003 -4.387450e-002
      vertex  2.700319e+000 -2.731870e-003 -4.387450e-002
    endloop
  endfacet
  facet normal  8.381259e-003  9.999650e-001  0.000000e+000
    outer loop
      vertex  2.700319e+000 -2.731870e-003 -1.212270e-001
      vertex  2.700319e+000 -2.731870e-003 -4.387450e-002
      vertex  2.701135e+000 -2.738710e-003 -1.212270e-001
    endloop
  endfacet
  facet normal  8.381259e-003  9.999650e-001  -0.000000e+000
    outer loop
      vertex  2.701135e+000 -2.738710e-003 -1.212270e-001
      vertex  2.700319e+000 -2.731870e-003 -4.387450e-002
      vertex  2.701135e+000 -2.738710e-003 -4.387450e-002
    endloop
  endfacet
  facet normal -1.477979e-002  9.998908e-001  0.000000e+000
    outer loop
      vertex  2.701135e+000 -2.738710e-003 -1.212270e-001
      vertex  2.701135e+000 -2.738710e-003 -4.387450e-002
      vertex  2.701952e+000 -2.726625e-003 -1.212270e-001
    endloop
  endfacet
  facet normal -1.477979e-002  9.998908e-001  0.000000e+000
    outer loop
      vertex  2.701952e+000 -2.726625e-003 -1.212270e-001
      vertex  2.701135e+000 -2.738710e-003 -4.387450e-002
      vertex  2.701952e+000 -2.726625e-003 -4.387450e-002
    endloop
  endfacet
  facet normal -3.682728e-002  9.993216e-001  0.000000e+000
    outer loop
      vertex  2.701952e+000 -2.726625e-003 -1.212270e-001
      vertex  2.701952e+000 -2.726625e-003 -4.387450e-002
      vertex  2.702771e+000 -2.696448e-003 -1.212270e-001
    endloop
  endfacet
  facet normal -3.682728e-002  9.993216e-001  0.000000e+000
    outer loop
      vertex  2.702771e+000 -2.696448e-003 -1.212270e-001
      vertex  2.701952e+000 -2.726625e-003 -4.387450e-002
      vertex  2.702771e+000 -2.696448e-003 -4.387450e-002
    endloop
  endfacet
  facet normal -5.776355e-002  9.983303e-001  0.000000e+000
    outer loop
      vertex  2.702771e+000 -2.696448e-003 -1.212270e-001
      vertex  2.702771e+000 -2.696448e-003 -4.387450e-002
      vertex  2.703590e+000 -2.649041e-003 -1.212270e-001
    endloop
  endfacet
  facet normal -5.776355e-002  9.983303e-001  0.000000e+000
    outer loop
      vertex  2.703590e+000 -2.649041e-003 -1.212270e-001
      vertex  2.702771e+000 -2.696448e-003 -4.387450e-002
      vertex  2.703590e+000 -2.649041e-003 -4.387450e-002
    endloop
  endfacet
  facet normal -7.756682e-002  9.969872e-001  0.000000e+000
    outer loop
      vertex  2.703590e+000 -2.649041e-003 -1.212270e-001
      vertex  2.703590e+000 -2.649041e-003 -4.387450e-002
      vertex  2.704410e+000 -2.585277e-003 -1.212270e-001
    endloop
  endfacet
  facet normal -7.756682e-002  9.969872e-001  0.000000e+000
    outer loop
      vertex  2.704410e+000 -2.585277e-003 -1.212270e-001
      vertex  2.703590e+000 -2.649041e-003 -4.387450e-002
      vertex  2.704410e+000 -2.585277e-003 -4.387450e-002
    endloop
  endfacet
  facet normal -9.627146e-002  9.953551e-001  0.000000e+000
    outer loop
      vertex  2.704410e+000 -2.585277e-003 -1.212270e-001
      vertex  2.704410e+000 -2.585277e-003 -4.387450e-002
      vertex  2.705229e+000 -2.506030e-003 -1.212270e-001
    endloop
  endfacet
  facet normal -9.627146e-002  9.953551e-001  0.000000e+000
    outer loop
      vertex  2.705229e+000 -2.506030e-003 -1.212270e-001
      vertex  2.704410e+000 -2.585277e-003 -4.387450e-002
      vertex  2.705229e+000 -2.506030e-003 -4.387450e-002
    endloop
  endfacet
  facet normal -1.160444e-001  9.932441e-001  0.000000e+000
    outer loop
      vertex  2.705229e+000 -2.506030e-003 -1.212270e-001
      vertex  2.705229e+000 -2.506030e-003 -4.387450e-002
      vertex  2.706252e+000 -2.386515e-003 -1.212270e-001
    endloop
  endfacet
  facet normal -1.160444e-001  9.932441e-001  0.000000e+000
    outer loop
      vertex  2.706252e+000 -2.386515e-003 -1.212270e-001
      vertex  2.705229e+000 -2.506030e-003 -4.387450e-002
      vertex  2.706252e+000 -2.386515e-003 -4.387450e-002
    endloop
  endfacet
  facet normal -1.365320e-001  9.906357e-001  0.000000e+000
    outer loop
      vertex  2.706252e+000 -2.386515e-003 -1.212270e-001
      vertex  2.706252e+000 -2.386515e-003 -4.387450e-002
      vertex  2.707273e+000 -2.245799e-003 -1.212270e-001
    endloop
  endfacet
  facet normal -1.365320e-001  9.906357e-001  0.000000e+000
    outer loop
      vertex  2.707273e+000 -2.245799e-003 -1.212270e-001
      vertex  2.706252e+000 -2.386515e-003 -4.387450e-002
      vertex  2.707273e+000 -2.245799e-003 -4.387450e-002
    endloop
  endfacet
  facet normal -1.555623e-001  9.878261e-001  0.000000e+000
    outer loop
      vertex  2.707273e+000 -2.245799e-003 -1.212270e-001
      vertex  2.707273e+000 -2.245799e-003 -4.387450e-002
      vertex  2.708292e+000 -2.085436e-003 -1.212270e-001
    endloop
  endfacet
  facet normal -1.555623e-001  9.878261e-001  0.000000e+000
    outer loop
      vertex  2.708292e+000 -2.085436e-003 -1.212270e-001
      vertex  2.707273e+000 -2.245799e-003 -4.387450e-002
      vertex  2.708292e+000 -2.085436e-003 -4.387450e-002
    endloop
  endfacet
  facet normal -1.733334e-001  9.848632e-001  0.000000e+000
    outer loop
      vertex  2.708292e+000 -2.085436e-003 -1.212270e-001
      vertex  2.708292e+000 -2.085436e-003 -4.387450e-002
      vertex  2.709306e+000 -1.906860e-003 -1.212270e-001
    endloop
  endfacet
  facet normal -1.733334e-001  9.848632e-001  0.000000e+000
    outer loop
      vertex  2.709306e+000 -1.906860e-003 -1.212270e-001
      vertex  2.708292e+000 -2.085436e-003 -4.387450e-002
      vertex  2.709306e+000 -1.906860e-003 -4.387450e-002
    endloop
  endfacet
  facet normal -1.899991e-001  9.817843e-001  0.000000e+000
    outer loop
      vertex  2.709306e+000 -1.906860e-003 -1.212270e-001
      vertex  2.709306e+000 -1.906860e-003 -4.387450e-002
      vertex  2.710316e+000 -1.711352e-003 -1.212270e-001
    endloop
  endfacet
  facet normal -1.899991e-001  9.817843e-001  0.000000e+000
    outer loop
      vertex  2.710316e+000 -1.711352e-003 -1.212270e-001
      vertex  2.709306e+000 -1.906860e-003 -4.387450e-002
      vertex  2.710316e+000 -1.711352e-003 -4.387450e-002
    endloop
  endfacet
  facet normal -2.056779e-001  9.786197e-001  0.000000e+000
    outer loop
      vertex  2.710316e+000 -1.711352e-003 -1.212270e-001
      vertex  2.710316e+000 -1.711352e-003 -4.387450e-002
      vertex  2.711322e+000 -1.500000e-003 -1.212270e-001
    endloop
  endfacet
  facet normal -2.056779e-001  9.786197e-001  0.000000e+000
    outer loop
      vertex  2.711322e+000 -1.500000e-003 -1.212270e-001
      vertex  2.710316e+000 -1.711352e-003 -4.387450e-002
      vertex  2.711322e+000 -1.500000e-003 -4.387450e-002
    endloop
  endfacet
  facet normal -2.273876e-001  9.738044e-001  0.000000e+000
    outer loop
      vertex  2.711322e+000 -1.500000e-003 -1.212270e-001
      vertex  2.711322e+000 -1.500000e-003 -4.387450e-002
      vertex  2.713243e+000 -1.051405e-003 -1.212270e-001
    endloop
  endfacet
  facet normal -2.273876e-001  9.738044e-001  0.000000e+000
    outer loop
      vertex  2.713243e+000 -1.051405e-003 -1.212270e-001
      vertex  2.711322e+000 -1.500000e-003 -4.387450e-002
      vertex  2.713243e+000 -1.051405e-003 -4.387450e-002
    endloop
  endfacet
  facet normal -2.548015e-001  9.669933e-001  0.000000e+000
    outer loop
      vertex  2.713243e+000 -1.051405e-003 -1.212270e-001
      vertex  2.713243e+000 -1.051405e-003 -4.387450e-002
      vertex  2.715143e+000 -5.509118e-004 -1.212270e-001
    endloop
  endfacet
  facet normal -2.548015e-001  9.669933e-001  0.000000e+000
    outer loop
      vertex  2.715143e+000 -5.509118e-004 -1.212270e-001
      vertex  2.713243e+000 -1.051405e-003 -4.387450e-002
      vertex  2.715143e+000 -5.509118e-004 -4.387450e-002
    endloop
  endfacet
  facet normal -2.815656e-001  9.595419e-001  0.000000e+000
    outer loop
      vertex  2.715143e+000 -5.509118e-004 -1.212270e-001
      vertex  2.715143e+000 -5.509118e-004 -4.387450e-002
      vertex  2.717020e+000 -1.694423e-018 -1.212270e-001
    endloop
  endfacet
  facet normal -2.815656e-001  9.595419e-001 -1.083627e-017
    outer loop
      vertex  2.717020e+000 -1.694423e-018 -1.212270e-001
      vertex  2.715143e+000 -5.509118e-004 -4.387450e-002
      vertex  2.717020e+000 -8.208681e-019 -4.387450e-002
    endloop
  endfacet
  facet normal  0.000000e+000  0.000000e+000  1.000000e+000
    outer loop
      vertex  2.717020e+000  9.436896e-020 -4.387450e-002
      vertex  2.715143e+000  5.509118e-004 -4.387450e-002
      vertex  2.715143e+000 -5.509118e-004 -4.387450e-002
    endloop
  endfacet
  facet normal  0.000000e+000  0.000000e+000  1.000000e+000
    outer loop
      vertex  2.715143e+000 -5.509118e-004 -4.387450e-002
      vertex  2.715143e+000  5.509118e-004 -4.387450e-002
      vertex  2.713243e+000 -1.051405e-003 -4.387450e-002
    endloop
  endfacet
  facet normal  0.000000e+000  0.000000e+000  1.000000e+000
    outer loop
      vertex  2.713243e+000 -1.051405e-003 -4.387450e-002
      vertex  2.715143e+000  5.509118e-004 -4.387450e-002
      vertex  2.713243e+000  1.051405e-003 -4.387450e-002
    endloop
  endfacet
  facet normal  0.000000e+000  0.000000e+000  1.000000e+000
    outer loop
      vertex  2.713243e+000 -1.051405e-003 -4.387450e-002
      vertex  2.713243e+000  1.051405e-003 -4.387450e-002
      vertex  2.711322e+000 -1.500000e-003 -4.387450e-002
    endloop
  endfacet
  facet normal  0.000000e+000  0.000000e+000  1.000000e+000
    outer loop
      vertex  2.711322e+000 -1.500000e-003 -4.387450e-002
      vertex  2.713243e+000  1.051405e-003 -4.387450e-002
      vertex  2.711322e+000  1.500000e-003 -4.387450e-002
    endloop
  endfacet
  facet normal  0.000000e+000  0.000000e+000  1.000000e+000
    outer loop
      vertex  2.711322e+000 -1.500000e-003 -4.387450e-002
      vertex  2.711322e+000  1.500000e-003 -4.387450e-002
      vertex  2.709306e+000 -1.906860e-003 -4.387450e-002
    endloop
  endfacet
  facet normal  0.000000e+000  0.000000e+000  1.000000e+000
    outer loop
      vertex  2.709306e+000 -1.906860e-003 -4.387450e-002
      vertex  2.711322e+000  1.500000e-003 -4.387450e-002
      vertex  2.709306e+000  1.906860e-003 -4.387450e-002
    endloop
  endfacet
  facet normal  0.000000e+000  0.000000e+000  1.000000e+000
    outer loop
      vertex  2.709306e+000 -1.906860e-003 -4.387450e-002
      vertex  2.709306e+000  1.906860e-003 -4.387450e-002
      vertex  2.707273e+000 -2.245799e-003 -4.387450e-002
    endloop
  endfacet
  facet normal  0.000000e+000  0.000000e+000  1.000000e+000
    outer loop
      vertex  2.707273e+000 -2.245799e-003 -4.387450e-002
      vertex  2.709306e+000  1.906860e-003 -4.387450e-002
      vertex  2.707273e+000  2.245799e-003 -4.387450e-002
    endloop
  endfacet
  facet normal  0.000000e+000  0.000000e+000  9.999999e-001
    outer loop
      vertex  2.707273e+000 -2.245799e-003 -4.387450e-002
      vertex  2.707273e+000  2.245799e-003 -4.387450e-002
      vertex  2.706252e+000 -2.386515e-003 -4.387450e-002
    endloop
  endfacet
  facet normal  0.000000e+000  0.000000e+000  1.000000e+000
    outer loop
      vertex  2.706252e+000 -2.386515e-003 -4.387450e-002
      vertex  2.707273e+000  2.245799e-003 -4.387450e-002
      vertex  2.706252e+000  2.386515e-003 -4.387450e-002
    endloop
  endfacet
  facet normal  0.000000e+000  0.000000e+000  1.000000e+000
    outer loop
      vertex  2.706252e+000 -2.386515e-003 -4.387450e-002
      vertex  2.706252e+000  2.386515e-003 -4.387450e-002
      vertex  2.705229e+000 -2.506030e-003 -4.387450e-002
    endloop
  endfacet
  facet normal  0.000000e+000  0.000000e+000  1.000000e+000
    outer loop
      vertex  2.705229e+000 -2.506030e-003 -4.387450e-002
      vertex  2.706252e+000  2.386515e-003 -4.387450e-002
      vertex  2.705229e+000  2.506030e-003 -4.387450e-002
    endloop
  endfacet
  facet normal  0.000000e+000  0.000000e+000  1.000000e+000
    outer loop
      vertex  2.705229e+000 -2.506030e-003 -4.387450e-002
      vertex  2.705229e+000  2.506030e-003 -4.387450e-002
      vertex  2.703590e+000 -2.649041e-003 -4.387450e-002
    endloop
  endfacet
  facet normal  0.000000e+000  0.000000e+000  1.000000e+000
    outer loop
      vertex  2.703590e+000 -2.649041e-003 -4.387450e-002
      vertex  2.705229e+000  2.506030e-003 -4.387450e-002
      vertex  2.703590e+000  2.649041e-003 -4.387450e-002
    endloop
  endfacet
  facet normal  0.000000e+000  0.000000e+000  1.000000e+000
    outer loop
      vertex  2.703590e+000 -2.649041e-003 -4.387450e-002
      vertex  2.703590e+000  2.649041e-003 -4.387450e-002
      vertex  2.701952e+000 -2.726625e-003 -4.387450e-002
    endloop
  endfacet
  facet normal  0.000000e+000  0.000000e+000  1.000000e+000
    outer loop
      vertex  2.701952e+000 -2.726625e-003 -4.387450e-002
      vertex  2.703590e+000  2.649041e-003 -4.387450e-002
      vertex  2.701952e+000  2.726625e-003 -4.387450e-002
    endloop
  endfacet
  facet normal  0.000000e+000  0.000000e+000  1.000000e+000
    outer loop
      vertex  2.701952e+000 -2.726625e-003 -4.387450e-002
      vertex  2.701952e+000  2.726625e-003 -4.387450e-002
      vertex  2.700319e+000 -2.731870e-003 -4.387450e-002
    endloop
  endfacet
  facet normal  0.000000e+000  0.000000e+000  1.000000e+000
    outer loop
      vertex  2.700319e+000 -2.731870e-003 -4.387450e-002
      vertex  2.701952e+000  2.726625e-003 -4.387450e-002
      vertex  2.700319e+000  2.731870e-003 -4.387450e-002
    endloop
  endfacet
  facet normal  0.000000e+000  0.000000e+000  1.000000e+000
    outer loop
      vertex  2.700319e+000 -2.731870e-003 -4.387450e-002
      vertex  2.700319e+000  2.731870e-003 -4.387450e-002
      vertex  2.699499e+000 -2.705085e-003 -4.387450e-002
    endloop
  endfacet
  facet normal  0.000000e+000  0.000000e+000  1.000000e+000
    outer loop
      vertex  2.699499e+000 -2.705085e-003 -4.387450e-002
      vertex  2.700319e+000  2.731870e-003 -4.387450e-002
      vertex  2.699499e+000  2.705085e-003 -4.387450e-002
    endloop
  endfacet
  facet normal  0.000000e+000  0.000000e+000  1.000000e+000
    outer loop
      vertex  2.699499e+000 -2.705085e-003 -4.387450e-002
      vertex  2.699499e+000  2.705085e-003 -4.387450e-002
      vertex  2.698683e+000 -2.657574e-003 -4.387450e-002
    endloop
  endfacet
  facet normal  0.000000e+000  0.000000e+000  1.000000e+000
    outer loop
      vertex  2.698683e+000 -2.657574e-003 -4.387450e-002
      vertex  2.699499e+000  2.705085e-003 -4.387450e-002
      vertex  2.698683e+000  2.657574e-003 -4.387450e-002
    endloop
  endfacet
  facet normal  0.000000e+000  0.000000e+000  1.000000e+000
    outer loop
      vertex  2.698683e+000 -2.657574e-003 -4.387450e-002
      vertex  2.698683e+000  2.657574e-003 -4.387450e-002
      vertex  2.697879e+000 -2.589562e-003 -4.387450e-002
    endloop
  endfacet
  facet normal  0.000000e+000  0.000000e+000  1.000000e+000
    outer loop
      vertex  2.697879e+000 -2.589562e-003 -4.387450e-002
      vertex  2.698683e+000  2.657574e-003 -4.387450e-002
      vertex  2.697879e+000  2.589562e-003 -4.387450e-002
    endloop
  endfacet
  facet normal  0.000000e+000  0.000000e+000  1.000000e+000
    outer loop
      vertex  2.697879e+000 -2.589562e-003 -4.387450e-002
      vertex  2.697879e+000  2.589562e-003 -4.387450e-002
      vertex  2.697077e+000 -2.500000e-003 -4.387450e-002
    endloop
  endfacet
  facet normal  0.000000e+000  0.000000e+000  1.000000e+000
    outer loop
      vertex  2.697077e+000 -2.500000e-003 -4.387450e-002
      vertex  2.697879e+000  2.589562e-003 -4.387450e-002
      vertex  2.697077e+000  2.500000e-003 -4.387450e-002
    endloop
  endfacet
  facet normal  0.000000e+000  0.000000e+000  1.000000e+000
    outer loop
      vertex  2.697077e+000 -2.500000e-003 -4.387450e-002
      vertex  2.697077e+000  2.500000e-003 -4.387450e-002
      vertex  2.695620e+000 -2.278641e-003 -4.387450e-002
    endloop
  endfacet
  facet normal  0.000000e+000  0.000000e+000  1.000000e+000
    outer loop
      vertex  2.695620e+000 -2.278641e-003 -4.387450e-002
      vertex  2.697077e+000  2.500000e-003 -4.387450e-002
      vertex  2.695620e+000  2.278641e-003 -4.387450e-002
    endloop
  endfacet
  facet normal  0.000000e+000  0.000000e+000  1.000000e+000
    outer loop
      vertex  2.695620e+000 -2.278641e-003 -4.387450e-002
      vertex  2.695620e+000  2.278641e-003 -4.387450e-002
      vertex  2.694175e+000 -1.980848e-003 -4.387450e-002
    endloop
  endfacet
  facet normal  0.000000e+000  0.000000e+000  1.000000e+000
    outer loop
      vertex  2.694175e+000 -1.980848e-003 -4.387450e-002
      vertex  2.695620e+000  2.278641e-003 -4.387450e-002
      vertex  2.694175e+000  1.980848e-003 -4.387450e-002
    endloop
  endfacet
  facet normal  0.000000e+000  0.000000e+000  1.000000e+000
    outer loop
      vertex  2.694175e+000 -1.980848e-003 -4.387450e-002
      vertex  2.694175e+000  1.980848e-003 -4.387450e-002
      vertex  2.692743e+000 -1.604902e-003 -4.387450e-002
    endloop
  endfacet
  facet normal  0.000000e+000  0.000000e+000  1.000000e+000
    outer loop
      vertex  2.692743e+000 -1.604902e-003 -4.387450e-002
      vertex  2.694175e+000  1.980848e-003 -4.387450e-002
      vertex  2.692743e+000  1.604902e-003 -4.387450e-002
    endloop
  endfacet
  facet normal  0.000000e+000  0.000000e+000  1.000000e+000
    outer loop
      vertex  2.692743e+000 -1.604902e-003 -4.387450e-002
      vertex  2.692743e+000  1.604902e-003 -4.387450e-002
      vertex  2.691324e+000 -1.149753e-003 -4.387450e-002
    endloop
  endfacet
  facet normal  0.000000e+000  0.000000e+000  1.000000e+000
    outer loop
      vertex  2.691324e+000 -1.149753e-003 -4.387450e-002
      vertex  2.692743e+000  1.604902e-003 -4.387450e-002
      vertex  2.691324e+000  1.149753e-003 -4.387450e-002
    endloop
  endfacet
  facet normal  0.000000e+000  0.000000e+000  1.000000e+000
    outer loop
      vertex  2.691324e+000 -1.149753e-003 -4.387450e-002
      vertex  2.691324e+000  1.149753e-003 -4.387450e-002
      vertex  2.689920e+000 -6.148557e-004 -4.387450e-002
    endloop
  endfacet
  facet normal  0.000000e+000  0.000000e+000  1.000000e+000
    outer loop
      vertex  2.689920e+000 -6.148557e-004 -4.387450e-002
      vertex  2.691324e+000  1.149753e-003 -4.387450e-002
      vertex  2.689920e+000  6.148557e-004 -4.387450e-002
    endloop
  endfacet
  facet normal  0.000000e+000  0.000000e+000  1.000000e+000
    outer loop
      vertex  2.689920e+000 -6.148557e-004 -4.387450e-002
      vertex  2.689920e+000  6.148557e-004 -4.387450e-002
      vertex  2.688530e+000  5.384582e-019 -4.387450e-002
    endloop
  endfacet
  facet normal  0.000000e+000  0.000000e+000  1.000000e+000
    outer loop
      vertex  2.717020e+000  9.436896e-020 -1.212270e-001
      vertex  2.715143e+000  5.509118e-004 -1.212270e-001
      vertex  2.715143e+000 -5.509118e-004 -1.212270e-001
    endloop
  endfacet
  facet normal  0.000000e+000  0.000000e+000  1.000000e+000
    outer loop
      vertex  2.715143e+000 -5.509118e-004 -1.212270e-001
      vertex  2.715143e+000  5.509118e-004 -1.212270e-001
      vertex  2.713243e+000 -1.051405e-003 -1.212270e-001
    endloop
  endfacet
  facet normal  0.000000e+000  0.000000e+000  1.000000e+000
    outer loop
      vertex  2.713243e+000 -1.051405e-003 -1.212270e-001
      vertex  2.715143e+000  5.509118e-004 -1.212270e-001
      vertex  2.713243e+000  1.051405e-003 -1.212270e-001
    endloop
  endfacet
  facet normal  0.000000e+000  0.000000e+000  1.000000e+000
    outer loop
      vertex  2.713243e+000 -1.051405e-003 -1.212270e-001
      vertex  2.713243e+000  1.051405e-003 -1.212270e-001
      vertex  2.711322e+000 -1.500000e-003 -1.212270e-001
    endloop
  endfacet
  facet normal  0.000000e+000  0.000000e+000  1.000000e+000
    outer loop
      vertex  2.711322e+000 -1.500000e-003 -1.212270e-001
      vertex  2.713243e+000  1.051405e-003 -1.212270e-001
      vertex  2.711322e+000  1.500000e-003 -1.212270e-001
    endloop
  endfacet
  facet normal  0.000000e+000  0.000000e+000  1.000000e+000
    outer loop
      vertex  2.711322e+000 -1.500000e-003 -1.212270e-001
      vertex  2.711322e+000  1.500000e-003 -1.212270e-001
      vertex  2.709306e+000 -1.906860e-003 -1.212270e-001
    endloop
  endfacet
  facet normal  0.000000e+000  0.000000e+000  1.000000e+000
    outer loop
      vertex  2.709306e+000 -1.906860e-003 -1.212270e-001
      vertex  2.711322e+000  1.500000e-003 -1.212270e-001
      vertex  2.709306e+000  1.906860e-003 -1.212270e-001
    endloop
  endfacet
  facet normal  0.000000e+000  0.000000e+000  1.000000e+000
    outer loop
      vertex  2.709306e+000 -1.906860e-003 -1.212270e-001
      vertex  2.709306e+000  1.906860e-003 -1.212270e-001
      vertex  2.707273e+000 -2.245799e-003 -1.212270e-001
    endloop
  endfacet
  facet normal  0.000000e+000  0.000000e+000  1.000000e+000
    outer loop
      vertex  2.707273e+000 -2.245799e-003 -1.212270e-001
      vertex  2.709306e+000  1.906860e-003 -1.212270e-001
      vertex  2.707273e+000  2.245799e-003 -1.212270e-001
    endloop
  endfacet
  facet normal  0.000000e+000  0.000000e+000  9.999999e-001
    outer loop
      vertex  2.707273e+000 -2.245799e-003 -1.212270e-001
      vertex  2.707273e+000  2.245799e-003 -1.212270e-001
      vertex  2.706252e+000 -2.386515e-003 -1.212270e-001
    endloop
  endfacet
  facet normal  0.000000e+000  0.000000e+000  1.000000e+000
    outer loop
      vertex  2.706252e+000 -2.386515e-003 -1.212270e-001
      vertex  2.707273e+000  2.245799e-003 -1.212270e-001
      vertex  2.706252e+000  2.386515e-003 -1.212270e-001
    endloop
  endfacet
  facet normal  0.000000e+000  0.000000e+000  1.000000e+000
    outer loop
      vertex  2.706252e+000 -2.386515e-003 -1.212270e-001
      vertex  2.706252e+000  2.386515e-003 -1.212270e-001
      vertex  2.705229e+000 -2.506030e-003 -1.212270e-001
    endloop
  endfacet
  facet normal  0.000000e+000  0.000000e+000  1.000000e+000
    outer loop
      vertex  2.705229e+000 -2.506030e-003 -1.212270e-001
      vertex  2.706252e+000  2.386515e-003 -1.212270e-001
      vertex  2.705229e+000  2.506030e-003 -1.212270e-001
    endloop
  endfacet
  facet normal  0.000000e+000  0.000000e+000  1.000000e+000
    outer loop
      vertex  2.705229e+000 -2.506030e-003 -1.212270e-001
      vertex  2.705229e+000  2.506030e-003 -1.212270e-001
      vertex  2.703590e+000 -2.649041e-003 -1.212270e-001
    endloop
  endfacet
  facet normal  0.000000e+000  0.000000e+000  1.000000e+000
    outer loop
      vertex  2.703590e+000 -2.649041e-003 -1.212270e-001
      vertex  2.705229e+000  2.506030e-003 -1.212270e-001
      vertex  2.703590e+000  2.649041e-003 -1.212270e-001
    endloop
  endfacet
  facet normal  0.000000e+000  0.000000e+000  1.000000e+000
    outer loop
      vertex  2.703590e+000 -2.649041e-003 -1.212270e-001
      vertex  2.703590e+000  2.649041e-003 -1.212270e-001
      vertex  2.701952e+000 -2.726625e-003 -1.212270e-001
    endloop
  endfacet
  facet normal  0.000000e+000  0.000000e+000  1.000000e+000
    outer loop
      vertex  2.701952e+000 -2.726625e-003 -1.212270e-001
      vertex  2.703590e+000  2.649041e-003 -1.212270e-001
      vertex  2.701952e+000  2.726625e-003 -1.212270e-001
    endloop
  endfacet
  facet normal  0.000000e+000  0.000000e+000  1.000000e+000
    outer loop
      vertex  2.701952e+000 -2.726625e-003 -1.212270e-001
      vertex  2.701952e+000  2.726625e-003 -1.212270e-001
      vertex  2.700319e+000 -2.731870e-003 -1.212270e-001
    endloop
  endfacet
  facet normal  0.000000e+000  0.000000e+000  1.000000e+000
    outer loop
      vertex  2.700319e+000 -2.731870e-003 -1.212270e-001
      vertex  2.701952e+000  2.726625e-003 -1.212270e-001
      vertex  2.700319e+000  2.731870e-003 -1.212270e-001
    endloop
  endfacet
  facet normal  0.000000e+000  0.000000e+000  1.000000e+000
    outer loop
      vertex  2.700319e+000 -2.731870e-003 -1.212270e-001
      vertex  2.700319e+000  2.731870e-003 -1.212270e-001
      vertex  2.699499e+000 -2.705085e-003 -1.212270e-001
    endloop
  endfacet
  facet normal  0.000000e+000  0.000000e+000  1.000000e+000
    outer loop
      vertex  2.699499e+000 -2.705085e-003 -1.212270e-001
      vertex  2.700319e+000  2.731870e-003 -1.212270e-001
      vertex  2.699499e+000  2.705085e-003 -1.212270e-001
    endloop
  endfacet
  facet normal  0.000000e+000  0.000000e+000  1.000000e+000
    outer loop
      vertex  2.699499e+000 -2.705085e-003 -1.212270e-001
      vertex  2.699499e+000  2.705085e-003 -1.212270e-001
      vertex  2.698683e+000 -2.657574e-003 -1.212270e-001
    endloop
  endfacet
  facet normal  0.000000e+000  0.000000e+000  1.000000e+000
    outer loop
      vertex  2.698683e+000 -2.657574e-003 -1.212270e-001
      vertex  2.699499e+000  2.705085e-003 -1.212270e-001
      vertex  2.698683e+000  2.657574e-003 -1.212270e-001
    endloop
  endfacet
  facet normal  0.000000e+000  0.000000e+000  1.000000e+000
    outer loop
      vertex  2.698683e+000 -2.657574e-003 -1.212270e-001
      vertex  2.698683e+000  2.657574e-003 -1.212270e-001
      vertex  2.697879e+000 -2.589562e-003 -1.212270e-001
    endloop
  endfacet
  facet normal  0.000000e+000  0.000000e+000  1.000000e+000
    outer loop
      vertex  2.697879e+000 -2.589562e-003 -1.212270e-001
      vertex  2.698683e+000  2.657574e-003 -1.212270e-001
      vertex  2.697879e+000  2.589562e-003 -1.212270e-001
    endloop
  endfacet
  facet normal  0.000000e+000  0.000000e+000  1.000000e+000
    outer loop
      vertex  2.697879e+000 -2.589562e-003 -1.212270e-001
      vertex  2.697879e+000  2.589562e-003 -1.212270e-001
      vertex  2.697077e+000 -2.500000e-003 -1.212270e-001
    endloop
  endfacet
  facet normal  0.000000e+000  0.000000e+000  1.000000e+000
    outer loop
      vertex  2.697077e+000 -2.500000e-003 -1.212270e-001
      vertex  2.697879e+000  2.589562e-003 -1.212270e-001
      vertex  2.697077e+000  2.500000e-003 -1.212270e-001
    endloop
  endfacet
  facet normal  0.000000e+000  0.000000e+000  1.000000e+000
    outer loop
      vertex  2.697077e+000 -2.500000e-003 -1.212270e-001
      vertex  2.697077e+000  2.500000e-003 -1.212270e-001
      vertex  2.695620e+000 -2.278641e-003 -1.212270e-001
    endloop
  endfacet
  facet normal  0.000000e+000  0.000000e+000  1.000000e+000
    outer loop
      vertex  2.695620e+000 -2.278641e-003 -1.212270e-001
      vertex  2.697077e+000  2.500000e-003 -1.212270e-001
      vertex  2.695620e+000  2.278641e-003 -1.212270e-001
    endloop
  endfacet
  facet normal  0.000000e+000  0.000000e+000  1.000000e+000
    outer loop
      vertex  2.695620e+000 -2.278641e-003 -1.212270e-001
      vertex  2.695620e+000  2.278641e-003 -1.212270e-001
      vertex  2.694175e+000 -1.980848e-003 -1.212270e-001
    endloop
  endfacet
  facet normal  0.000000e+000  0.000000e+000  1.000000e+000
    outer loop
      vertex  2.694175e+000 -1.980848e-003 -1.212270e-001
      vertex  2.695620e+000  2.278641e-003 -1.212270e-001
      vertex  2.694175e+000  1.980848e-003 -1.212270e-001
    endloop
  endfacet
  facet normal  0.000000e+000  0.000000e+000  1.000000e+000
    outer loop
      vertex  2.694175e+000 -1.980848e-003 -1.212270e-001
      vertex  2.694175e+000  1.980848e-003 -1.212270e-001
      vertex  2.692743e+000 -1.604902e-003 -1.212270e-001
    endloop
  endfacet
  facet normal  0.000000e+000  0.000000e+000  1.000000e+000
    outer loop
      vertex  2.692743e+000 -1.604902e-003 -1.212270e-001
      vertex  2.694175e+000  1.980848e-003 -1.212270e-001
      vertex  2.692743e+000  1.604902e-003 -1.212270e-001
    endloop
  endfacet
  facet normal  0.000000e+000  0.000000e+000  1.000000e+000
    outer loop
      vertex  2.692743e+000 -1.604902e-003 -1.212270e-001
      vertex  2.692743e+000  1.604902e-003 -1.212270e-001
      vertex  2.691324e+000 -1.149753e-003 -1.212270e-001
    endloop
  endfacet
  facet normal  0.000000e+000  0.000000e+000  1.000000e+000
    outer loop
      vertex  2.691324e+000 -1.149753e-003 -1.212270e-001
      vertex  2.692743e+000  1.604902e-003 -1.212270e-001
      vertex  2.691324e+000  1.149753e-003 -1.212270e-001
    endloop
  endfacet
  facet normal  0.000000e+000  0.000000e+000  1.000000e+000
    outer loop
      vertex  2.691324e+000 -1.149753e-003 -1.212270e-001
      vertex  2.691324e+000  1.149753e-003 -1.212270e-001
      vertex  2.689920e+000 -6.148557e-004 -1.212270e-001
    endloop
  endfacet
  facet normal  0.000000e+000  0.000000e+000  1.000000e+000
    outer loop
      vertex  2.689920e+000 -6.148557e-004 -1.212270e-001
      vertex  2.691324e+000  1.149753e-003 -1.212270e-001
      vertex  2.689920e+000  6.148557e-004 -1.212270e-001
    endloop
  endfacet
  facet normal  0.000000e+000  0.000000e+000  1.000000e+000
    outer loop
      vertex  2.689920e+000 -6.148557e-004 -1.212270e-001
      vertex  2.689920e+000  6.148557e-004 -1.212270e-001
      vertex  2.688530e+000  5.384582e-019 -1.212270e-001
    endloop
  endfacet
endsolid rudder
